<svg id="Logo_White" data-name="Logo White" xmlns="http://www.w3.org/2000/svg" width="208.793" height="40" viewBox="0 0 208.793 40">
  <defs>
    <style>
      .cls-1 {
        fill: #fff;
      }

      .cls-2 {
        fill: #ff5c5c;
      }

      .cls-3 {
        fill: #cb3737;
      }

      .cls-4 {
        fill: #f84848;
      }
    </style>
  </defs>
  <g id="Group_3" data-name="Group 3" transform="translate(46.847 10.737)">
    <path id="Path_1" data-name="Path 1" class="cls-1" d="M443.367,306.883q.234.556.46,1.12.226-.58.468-1.144t.515-1.079l6.9-12.907a1.777,1.777,0,0,1,.266-.387.821.821,0,0,1,.306-.21,1.356,1.356,0,0,1,.379-.08c.139-.011.306-.016.5-.016h3.271v23.3h-3.819v-15.05q0-.419.025-.918t.072-1.016l-7.042,13.214a1.854,1.854,0,0,1-.629.7,1.627,1.627,0,0,1-.9.249h-.6a1.625,1.625,0,0,1-.9-.249,1.846,1.846,0,0,1-.629-.7l-7.139-13.262q.064.531.089,1.039t.024.943v15.05h-3.819v-23.3h3.271c.194,0,.36.006.5.016a1.356,1.356,0,0,1,.379.08.9.9,0,0,1,.315.21,1.639,1.639,0,0,1,.274.387l6.961,12.939Q443.133,306.328,443.367,306.883Z" transform="translate(-431.161 -292.034)"/>
    <path id="Path_2" data-name="Path 2" class="cls-1" d="M500.505,321.715h-1.789a1.923,1.923,0,0,1-.886-.169,1.085,1.085,0,0,1-.483-.685l-.355-1.177a13.615,13.615,0,0,1-1.232.991,7.521,7.521,0,0,1-1.249.718,6.365,6.365,0,0,1-1.37.435,8.24,8.24,0,0,1-1.611.145,6.339,6.339,0,0,1-1.934-.282,4.175,4.175,0,0,1-1.523-.849,3.862,3.862,0,0,1-.991-1.407,5.01,5.01,0,0,1-.355-1.956,3.867,3.867,0,0,1,.492-1.851,4.634,4.634,0,0,1,1.636-1.65,10.429,10.429,0,0,1,3.046-1.22,19.464,19.464,0,0,1,4.721-.485V311.3a3.7,3.7,0,0,0-.7-2.477,2.561,2.561,0,0,0-2.039-.8,4.939,4.939,0,0,0-1.611.226,6.255,6.255,0,0,0-1.12.508q-.476.282-.878.507a1.779,1.779,0,0,1-.886.225,1.151,1.151,0,0,1-.693-.21,1.64,1.64,0,0,1-.467-.516l-.725-1.273a9.832,9.832,0,0,1,6.881-2.61,6.649,6.649,0,0,1,2.586.475,5.494,5.494,0,0,1,1.925,1.321,5.664,5.664,0,0,1,1.2,2.022,7.777,7.777,0,0,1,.411,2.579Zm-7.734-2.482a5.376,5.376,0,0,0,1.127-.11,4.329,4.329,0,0,0,.975-.334,5.193,5.193,0,0,0,.887-.547,8.121,8.121,0,0,0,.862-.77v-2.768a16.157,16.157,0,0,0-2.909.219,7.686,7.686,0,0,0-1.877.56,2.422,2.422,0,0,0-1.008.8,1.766,1.766,0,0,0-.3.99,1.745,1.745,0,0,0,.621,1.51A2.672,2.672,0,0,0,492.771,319.233Z" transform="translate(-458.447 -298.269)"/>
    <path id="Path_3" data-name="Path 3" class="cls-1" d="M524.392,304.908a8.775,8.775,0,0,1,2,.217,6.824,6.824,0,0,1,1.707.637h4.754v1.483a.822.822,0,0,1-.193.58,1.153,1.153,0,0,1-.661.291l-1.482.274a5.144,5.144,0,0,1,.249.886,5.31,5.31,0,0,1,.089.983,4.869,4.869,0,0,1-1.845,3.9,6.29,6.29,0,0,1-2.046,1.071,8.4,8.4,0,0,1-2.57.379,9.263,9.263,0,0,1-1.821-.177q-.774.471-.774,1.055a.779.779,0,0,0,.459.738,3.722,3.722,0,0,0,1.208.332,13.279,13.279,0,0,0,1.7.1q.95,0,1.95.081a15.218,15.218,0,0,1,1.95.283,5.7,5.7,0,0,1,1.7.638,3.412,3.412,0,0,1,1.209,1.188,3.657,3.657,0,0,1,.46,1.932,4.564,4.564,0,0,1-.54,2.134,5.744,5.744,0,0,1-1.564,1.843,8.177,8.177,0,0,1-2.505,1.3,10.707,10.707,0,0,1-3.384.493,13.031,13.031,0,0,1-3.271-.362,7.636,7.636,0,0,1-2.3-.967,4.194,4.194,0,0,1-1.361-1.393,3.271,3.271,0,0,1-.451-1.644,2.809,2.809,0,0,1,.709-1.95,4.86,4.86,0,0,1,1.966-1.257,2.735,2.735,0,0,1-.982-.9,2.618,2.618,0,0,1-.371-1.466,2.46,2.46,0,0,1,.129-.765,3.053,3.053,0,0,1,.395-.782,3.849,3.849,0,0,1,.669-.733,4.587,4.587,0,0,1,.951-.62,5.224,5.224,0,0,1-1.974-1.8,4.821,4.821,0,0,1-.717-2.643,4.91,4.91,0,0,1,.491-2.215,4.963,4.963,0,0,1,1.37-1.692,6.268,6.268,0,0,1,2.078-1.072A8.848,8.848,0,0,1,524.392,304.908Zm4.367,17.517a1.14,1.14,0,0,0-.29-.806,1.911,1.911,0,0,0-.79-.486,5.728,5.728,0,0,0-1.169-.255,11.6,11.6,0,0,0-1.417-.082h-1.547a6.605,6.605,0,0,1-1.54-.178,3.593,3.593,0,0,0-1.087.878,1.8,1.8,0,0,0-.411,1.168,1.6,1.6,0,0,0,.217.814,1.821,1.821,0,0,0,.693.652,4.115,4.115,0,0,0,1.233.427,9.544,9.544,0,0,0,1.853.153,9.273,9.273,0,0,0,1.918-.173,4.573,4.573,0,0,0,1.329-.477,2.041,2.041,0,0,0,.765-.724A1.8,1.8,0,0,0,528.759,322.425Zm-4.367-9.364a3.742,3.742,0,0,0,1.289-.2,2.52,2.52,0,0,0,.911-.556,2.282,2.282,0,0,0,.548-.854,3.135,3.135,0,0,0,.185-1.1,2.59,2.59,0,0,0-.733-1.942,3.731,3.731,0,0,0-4.4,0,2.592,2.592,0,0,0-.733,1.942,3.073,3.073,0,0,0,.185,1.079,2.362,2.362,0,0,0,.548.862,2.466,2.466,0,0,0,.919.564A3.76,3.76,0,0,0,524.392,313.061Z" transform="translate(-473.342 -298.285)"/>
    <path id="Path_4" data-name="Path 4" class="cls-1" d="M551.728,321.761V305.228h2.434a.978.978,0,0,1,1.015.725l.258,1.225a9.49,9.49,0,0,1,.91-.886,5.842,5.842,0,0,1,1.015-.693,5.51,5.51,0,0,1,1.16-.46,5.178,5.178,0,0,1,1.362-.169,3.861,3.861,0,0,1,2.57.846,5.1,5.1,0,0,1,1.506,2.247,5.056,5.056,0,0,1,.967-1.41,5.306,5.306,0,0,1,1.273-.959,5.853,5.853,0,0,1,1.475-.548,7.053,7.053,0,0,1,1.571-.178,6.61,6.61,0,0,1,2.433.419,4.676,4.676,0,0,1,1.789,1.225,5.4,5.4,0,0,1,1.1,1.966,8.566,8.566,0,0,1,.379,2.659v10.522h-3.98V311.239a3.538,3.538,0,0,0-.693-2.377,2.545,2.545,0,0,0-2.031-.8,3.034,3.034,0,0,0-1.136.21,2.7,2.7,0,0,0-.919.6,2.766,2.766,0,0,0-.62.991,3.86,3.86,0,0,0-.226,1.37v10.522h-4V311.239a3.6,3.6,0,0,0-.669-2.417,2.493,2.493,0,0,0-1.974-.758,3.186,3.186,0,0,0-1.6.428,5.405,5.405,0,0,0-1.394,1.168v12.1Z" transform="translate(-490.366 -298.315)"/>
    <path id="Path_5" data-name="Path 5" class="cls-1" d="M615.943,321.715h-1.788a1.925,1.925,0,0,1-.887-.169,1.088,1.088,0,0,1-.483-.685l-.355-1.177a13.547,13.547,0,0,1-1.233.991,7.493,7.493,0,0,1-1.248.718,6.391,6.391,0,0,1-1.37.435,8.247,8.247,0,0,1-1.611.145,6.334,6.334,0,0,1-1.934-.282,4.166,4.166,0,0,1-1.523-.849,3.857,3.857,0,0,1-.991-1.407,5.01,5.01,0,0,1-.354-1.956,3.866,3.866,0,0,1,.491-1.851,4.632,4.632,0,0,1,1.636-1.65,10.421,10.421,0,0,1,3.045-1.22,19.46,19.46,0,0,1,4.721-.485V311.3a3.7,3.7,0,0,0-.7-2.477,2.559,2.559,0,0,0-2.038-.8,4.935,4.935,0,0,0-1.611.226,6.244,6.244,0,0,0-1.12.508q-.476.282-.878.507a1.78,1.78,0,0,1-.886.225,1.15,1.15,0,0,1-.694-.21,1.633,1.633,0,0,1-.467-.516l-.725-1.273a9.835,9.835,0,0,1,6.881-2.61,6.645,6.645,0,0,1,2.586.475,5.485,5.485,0,0,1,1.925,1.321,5.666,5.666,0,0,1,1.2,2.022,7.776,7.776,0,0,1,.41,2.579Zm-7.734-2.482a5.382,5.382,0,0,0,1.128-.11,4.338,4.338,0,0,0,.975-.334,5.185,5.185,0,0,0,.886-.547,8.021,8.021,0,0,0,.862-.77v-2.768a16.154,16.154,0,0,0-2.908.219,7.686,7.686,0,0,0-1.877.56,2.41,2.41,0,0,0-1.007.8,1.766,1.766,0,0,0-.3.99,1.746,1.746,0,0,0,.62,1.51A2.672,2.672,0,0,0,608.209,319.233Z" transform="translate(-515.134 -298.269)"/>
    <path id="Path_6" data-name="Path 6" class="cls-1" d="M639.777,314.561H650.59v1.4H638.134v-22.8h1.643Z" transform="translate(-532.797 -292.516)"/>
    <path id="Path_7" data-name="Path 7" class="cls-1" d="M677.114,322.228a.551.551,0,0,1-.6-.451l-.226-2.046a16.947,16.947,0,0,1-1.313,1.16,7.843,7.843,0,0,1-1.361.87,6.7,6.7,0,0,1-1.531.54,8.233,8.233,0,0,1-1.8.185,5.316,5.316,0,0,1-1.6-.242,3.938,3.938,0,0,1-1.37-.741,3.641,3.641,0,0,1-.959-1.281,4.43,4.43,0,0,1-.362-1.877,3.33,3.33,0,0,1,.58-1.886,4.77,4.77,0,0,1,1.812-1.515,11.956,11.956,0,0,1,3.175-1.031,27.656,27.656,0,0,1,4.665-.451v-1.675a5.371,5.371,0,0,0-.959-3.425,3.421,3.421,0,0,0-2.844-1.2,5.372,5.372,0,0,0-1.974.322,6.989,6.989,0,0,0-1.378.709,8.731,8.731,0,0,0-.919.709.993.993,0,0,1-.6.323.52.52,0,0,1-.483-.291l-.274-.467a9.329,9.329,0,0,1,2.643-1.9,7.368,7.368,0,0,1,3.142-.645,5.74,5.74,0,0,1,2.257.411,4.17,4.17,0,0,1,1.6,1.177,5.132,5.132,0,0,1,.959,1.853,8.526,8.526,0,0,1,.323,2.426v10.441Zm-6.445-.853a6.844,6.844,0,0,0,1.716-.2,6.363,6.363,0,0,0,1.45-.563,7.081,7.081,0,0,0,1.249-.863q.58-.5,1.145-1.079v-4.174a28.634,28.634,0,0,0-3.941.347,11.317,11.317,0,0,0-2.723.765,3.987,3.987,0,0,0-1.579,1.152,2.452,2.452,0,0,0-.508,1.523,3.355,3.355,0,0,0,.267,1.393,2.682,2.682,0,0,0,1.716,1.523A4.1,4.1,0,0,0,670.669,321.374Z" transform="translate(-546.478 -298.782)"/>
    <path id="Path_8" data-name="Path 8" class="cls-1" d="M697.594,315.34V291.894h1.531l.016,10.217a8.375,8.375,0,0,1,2.465-2.24,6.13,6.13,0,0,1,3.159-.822,5.593,5.593,0,0,1,4.6,2.039q1.651,2.038,1.651,6.131a11.26,11.26,0,0,1-.461,3.28,7.776,7.776,0,0,1-1.355,2.642,6.445,6.445,0,0,1-2.195,1.765,6.651,6.651,0,0,1-2.993.644,5.594,5.594,0,0,1-4.97-2.578l-.1,1.966a.4.4,0,0,1-.431.4Zm6.727-15.066a5.269,5.269,0,0,0-2.888.821,8.175,8.175,0,0,0-2.308,2.288v8.46a5.439,5.439,0,0,0,2.034,1.942,6.219,6.219,0,0,0,5.051.04,4.886,4.886,0,0,0,1.783-1.458,6.555,6.555,0,0,0,1.081-2.256,10.824,10.824,0,0,0,.363-2.893q0-3.577-1.323-5.26A4.539,4.539,0,0,0,704.321,300.274Z" transform="translate(-561.995 -291.894)"/>
    <path id="Path_9" data-name="Path 9" class="cls-1" d="M738.28,308.208a.371.371,0,0,1-.354.225.869.869,0,0,1-.46-.2,7.584,7.584,0,0,0-.741-.451,6.019,6.019,0,0,0-1.128-.45,5.73,5.73,0,0,0-1.635-.2,4.8,4.8,0,0,0-1.587.249,3.937,3.937,0,0,0-1.224.667,3.031,3.031,0,0,0-.79.972,2.537,2.537,0,0,0-.282,1.165,1.984,1.984,0,0,0,.387,1.254,3.333,3.333,0,0,0,1.015.851,7.785,7.785,0,0,0,1.427.611q.8.257,1.635.515t1.636.572a6.162,6.162,0,0,1,1.426.781,3.7,3.7,0,0,1,1.016,1.144,3.273,3.273,0,0,1,.386,1.644,4.994,4.994,0,0,1-.379,1.95,4.44,4.44,0,0,1-1.1,1.563,5.252,5.252,0,0,1-1.765,1.048,6.872,6.872,0,0,1-2.385.386,7.2,7.2,0,0,1-2.916-.539,8.2,8.2,0,0,1-2.192-1.41l.371-.548a.629.629,0,0,1,.178-.193.492.492,0,0,1,.274-.064.889.889,0,0,1,.516.258,6.438,6.438,0,0,0,.8.556,6.586,6.586,0,0,0,1.224.556,5.513,5.513,0,0,0,1.813.258,5.214,5.214,0,0,0,1.789-.281,3.715,3.715,0,0,0,1.289-.765,3.189,3.189,0,0,0,.782-1.136,3.606,3.606,0,0,0,.266-1.378,2.218,2.218,0,0,0-.387-1.337,3.33,3.33,0,0,0-1.015-.9,7.132,7.132,0,0,0-1.427-.628q-.8-.258-1.643-.516t-1.644-.563a5.954,5.954,0,0,1-1.426-.774,3.72,3.72,0,0,1-1.015-1.135,3.294,3.294,0,0,1-.386-1.668,3.821,3.821,0,0,1,.37-1.643,4.175,4.175,0,0,1,1.055-1.386,5.193,5.193,0,0,1,1.668-.951,6.476,6.476,0,0,1,2.207-.355,7.406,7.406,0,0,1,2.6.425,6.365,6.365,0,0,1,2.087,1.3Z" transform="translate(-577.06 -298.797)"/>
  </g>
  <g id="Group_2" data-name="Group 2">
    <path id="Path_10" data-name="Path 10" class="cls-2" d="M351.968,292.78l-12.783,22.057a.532.532,0,0,0,.46.8h6.062a1.064,1.064,0,0,0,.921-.53l9.29-16.031a1.063,1.063,0,0,0,0-1.067l-3.03-5.228A.532.532,0,0,0,351.968,292.78Z" transform="translate(-339.112 -281.462)"/>
    <path id="Path_11" data-name="Path 11" class="cls-3" d="M399.067,314.5l-3.03,5.228a1.063,1.063,0,0,0,0,1.067l2.89,4.988a1.063,1.063,0,0,0,.92.53h6.063a.532.532,0,0,0,.46-.8L399.987,314.5A.532.532,0,0,0,399.067,314.5Z" transform="translate(-366.995 -292.126)"/>
    <path id="Path_12" data-name="Path 12" class="cls-4" d="M380.3,292.78l-9.435,16.28a1.063,1.063,0,0,0,0,1.067l3.03,5.228a.532.532,0,0,0,.92,0l9.435-16.28a1.063,1.063,0,0,0,0-1.067l-3.03-5.228A.532.532,0,0,0,380.3,292.78Z" transform="translate(-354.635 -281.462)"/>
    <path id="Path_13" data-name="Path 13" class="cls-3" d="M377.846,276.291l-3.03-5.228a.532.532,0,0,0-.92,0l-3.03,5.228a1.063,1.063,0,0,0,0,1.067l3.03,5.228a.532.532,0,0,0,.92,0l3.03-5.228A1.065,1.065,0,0,0,377.846,276.291Z" transform="translate(-354.635 -270.798)"/>
  </g>
</svg>
